<svg xmlns="http://www.w3.org/2000/svg" xmlns:xlink="http://www.w3.org/1999/xlink" width="500" zoomAndPan="magnify" viewBox="0 0 375 374.999991" height="500" preserveAspectRatio="xMidYMid meet" version="1.0"><rect x="-37.5" width="450" fill="#ffffff" y="-37.499999" height="449.999989" fill-opacity="1"/><rect x="-37.5" width="450" fill="#ffffff" y="-37.499999" height="449.999989" fill-opacity="1"/><path fill="#000000" d="M 372.847656 119.800781 L 345.589844 92.542969 L 345.589844 80.882812 C 345.589844 78.933594 344.8125 77.0625 343.433594 75.683594 L 321.375 53.625 C 318.503906 50.753906 313.847656 50.753906 310.976562 53.625 C 308.105469 56.496094 308.105469 61.152344 310.976562 64.023438 L 330.882812 83.929688 C 330.882812 104.886719 330.882812 121.804688 330.882812 142.257812 C 330.882812 151.84375 337.03125 160.015625 345.589844 163.050781 L 345.589844 319.851562 C 345.589844 325.933594 340.640625 330.882812 334.558594 330.882812 C 328.476562 330.882812 323.53125 325.933594 323.53125 319.851562 L 323.53125 294.117188 C 323.53125 272.296875 307.601562 254.136719 286.765625 250.625 L 286.765625 250 C 286.765625 233.78125 273.570312 220.589844 257.351562 220.589844 L 257.351562 29.410156 C 257.351562 13.195312 244.160156 0 227.941406 0 L 58.824219 0 C 42.605469 0 29.410156 13.195312 29.410156 29.410156 L 29.410156 316.175781 C 13.195312 316.175781 0 329.371094 0 345.589844 C 0 361.804688 13.195312 375 29.410156 375 L 257.351562 375 C 273.570312 375 286.765625 361.804688 286.765625 345.589844 C 286.765625 329.371094 273.570312 316.175781 257.351562 316.175781 L 257.351562 294.117188 C 273.261719 294.117188 286.25 281.421875 286.742188 265.632812 C 299.425781 268.894531 308.824219 280.429688 308.824219 294.117188 L 308.824219 319.851562 C 308.824219 334.042969 320.367188 345.589844 334.558594 345.589844 C 348.75 345.589844 360.292969 334.042969 360.292969 319.851562 L 360.292969 163.050781 C 368.851562 160.015625 375 151.84375 375 142.257812 L 375 125 C 375 123.050781 374.226562 121.179688 372.847656 119.800781 Z M 44.117188 29.410156 C 44.117188 21.304688 50.714844 14.707031 58.824219 14.707031 L 227.941406 14.707031 C 236.050781 14.707031 242.648438 21.304688 242.648438 29.410156 L 242.648438 227.941406 C 242.648438 232.789062 242.648438 310.96875 242.648438 316.175781 L 44.117188 316.175781 Z M 272.058594 345.589844 C 272.058594 353.695312 265.460938 360.292969 257.351562 360.292969 L 29.410156 360.292969 C 21.304688 360.292969 14.707031 353.695312 14.707031 345.589844 C 14.707031 337.480469 21.304688 330.882812 29.410156 330.882812 L 257.351562 330.882812 C 265.460938 330.882812 272.058594 337.480469 272.058594 345.589844 Z M 272.058594 264.707031 C 272.058594 272.816406 265.460938 279.410156 257.351562 279.410156 L 257.351562 235.292969 C 265.460938 235.292969 272.058594 241.890625 272.058594 250 Z M 272.058594 264.707031 " fill-opacity="1" fill-rule="nonzero"/><path fill="#000000" d="M 220.589844 29.410156 L 66.175781 29.410156 C 62.117188 29.410156 58.824219 32.703125 58.824219 36.765625 L 58.824219 132.351562 C 58.824219 136.414062 62.117188 139.707031 66.175781 139.707031 L 220.589844 139.707031 C 224.648438 139.707031 227.941406 136.414062 227.941406 132.351562 L 227.941406 36.765625 C 227.941406 32.703125 224.648438 29.410156 220.589844 29.410156 Z M 103.105469 125 C 104.273438 112.121094 111.617188 100.652344 122.433594 94.074219 L 137.972656 108.355469 C 140.964844 111.105469 145.617188 110.90625 148.363281 107.917969 C 151.113281 104.925781 150.914062 100.273438 147.925781 97.527344 L 138.183594 88.574219 C 161.566406 85.605469 181.632812 102.710938 183.65625 125 Z M 213.234375 125 L 198.40625 125 C 196.554688 96.792969 173.070312 73.53125 143.382812 73.53125 C 136.972656 73.53125 130.855469 74.632812 125.171875 76.617188 L 107.917969 60.761719 C 104.925781 58.015625 100.273438 58.210938 97.527344 61.199219 C 94.777344 64.191406 94.976562 68.84375 97.964844 71.589844 L 111.292969 83.835938 C 98.179688 93.257812 89.457031 108.246094 88.359375 125 L 73.53125 125 L 73.53125 44.117188 L 213.234375 44.117188 Z M 213.234375 125 " fill-opacity="1" fill-rule="nonzero"/><path fill="#000000" d="M 128.675781 238.96875 C 128.675781 247.078125 135.273438 253.675781 143.382812 253.675781 C 151.492188 253.675781 158.089844 247.078125 158.089844 238.96875 C 158.089844 234.105469 151.226562 220.777344 143.382812 208.246094 C 135.539062 220.777344 128.675781 234.105469 128.675781 238.96875 Z M 128.675781 238.96875 " fill-opacity="1" fill-rule="nonzero"/><path fill="#000000" d="M 143.382812 154.410156 C 102.835938 154.410156 69.851562 187.394531 69.851562 227.941406 C 69.851562 268.484375 102.835938 301.46875 143.382812 301.46875 C 183.925781 301.46875 216.910156 268.484375 216.910156 227.941406 C 216.910156 187.394531 183.925781 154.410156 143.382812 154.410156 Z M 143.382812 268.382812 C 127.164062 268.382812 113.96875 255.1875 113.96875 238.96875 C 113.96875 225.195312 133.429688 196.320312 137.332031 190.671875 C 138.703125 188.6875 140.964844 187.5 143.382812 187.5 C 145.796875 187.5 148.058594 188.6875 149.433594 190.671875 C 153.332031 196.320312 172.792969 225.195312 172.792969 238.96875 C 172.792969 255.1875 159.601562 268.382812 143.382812 268.382812 Z M 143.382812 268.382812 " fill-opacity="1" fill-rule="nonzero"/></svg>